# xmcd
#
# Track frame offsets:
#	150
#	15419
#	29271
#	43103
#	59075
#	78069
#	90002
#	106260
#	120893
#	133501
#	147898
#	165856
#	180645
#
# Disc length: 2621 seconds
#
# Revision: 1
# Processed by: cddbd v1.5.2PL0 Copyright (c) Steve Scherf et al.
# Submitted via: EZCDAudioConverter 7.1.2.1
#
DISCID=8e0a3b0d
DTITLE=Chelsea Basham - I Make My Own Sunshine 2012
DYEAR=2012
DGENRE=Australia Country
TTITLE0=Laugh It Off
TTITLE1=Gun Shy
TTITLE2=By The Light Of The Moon
TTITLE3=I Make My Own Sunshine
TTITLE4=I Learned The Hard Way
TTITLE5=Boom There You Go
TTITLE6=Right Where You Are
TTITLE7=Make Hay While The Sun Shines
TTITLE8=31 Degrees And Sunny
TTITLE9=Chasing Trouble
TTITLE10=Let You Lead
TTITLE11=Weekend
TTITLE12=Starting Over
EXTD=
EXTT0=
EXTT1=
EXTT2=
EXTT3=
EXTT4=
EXTT5=
EXTT6=
EXTT7=
EXTT8=
EXTT9=
EXTT10=
EXTT11=
EXTT12=
PLAYORDER=
